<svg width="42" height="33" viewBox="0 0 42 33" fill="none" xmlns="http://www.w3.org/2000/svg">
<path d="M41.4808 11.6231C41.4585 11.4568 41.3776 11.3033 41.2521 11.1894L29.8486 0.659727C29.7409 0.558658 29.6044 0.492228 29.4572 0.469319C29.3101 0.446411 29.1593 0.468129 29.0251 0.531542C28.8908 0.594955 28.7795 0.697049 28.706 0.824194C28.6325 0.951339 28.6003 1.09746 28.6137 1.24304L29.0405 6.85186L21.0062 6.83694C20.9091 6.83542 20.8127 6.85286 20.7225 6.88826C20.6324 6.92366 20.5504 6.9763 20.4812 7.04312C20.412 7.10993 20.357 7.18958 20.3195 7.27743C20.282 7.36529 20.2627 7.45958 20.2627 7.55483C20.2627 7.65009 20.282 7.74438 20.3195 7.83224C20.357 7.92009 20.412 7.99977 20.4812 8.06658C20.5504 8.1334 20.6324 8.18604 20.7225 8.22144C20.8127 8.25683 20.9091 8.27428 21.0062 8.27276L29.8181 8.2876C29.9181 8.28778 30.0172 8.2678 30.1091 8.22894C30.201 8.19009 30.2838 8.13317 30.3524 8.06167C30.4209 7.99018 30.4738 7.90565 30.5078 7.81331C30.5418 7.72096 30.5561 7.62276 30.5498 7.52478L30.2144 2.96297L39.7276 11.7426L30.7785 21.0309L30.8547 17.0672C30.8568 16.9704 30.8389 16.8742 30.8021 16.7844C30.7653 16.6946 30.7103 16.613 30.6405 16.5445C30.5707 16.4761 30.4876 16.4221 30.396 16.386C30.3044 16.3499 30.2064 16.3324 30.1077 16.3344L12.8804 16.5288L12.4535 10.8303C12.4452 10.69 12.3952 10.5551 12.3095 10.4424C12.2239 10.3298 12.1064 10.2442 11.9717 10.1965C11.8369 10.1487 11.6909 10.1408 11.5516 10.1737C11.4123 10.2066 11.2859 10.2789 11.1881 10.3816L0.714558 21.2702C0.648291 21.3388 0.596493 21.4196 0.562136 21.508C0.527778 21.5963 0.511539 21.6904 0.514349 21.7849C0.51716 21.8794 0.538965 21.9724 0.578512 22.0586C0.61806 22.1448 0.674572 22.2225 0.744805 22.2873L12.1484 32.8169C12.2548 32.9104 12.3869 32.9714 12.5283 32.9921C12.6696 33.0129 12.8141 32.9926 12.9438 32.9337C13.0736 32.8749 13.1829 32.78 13.2583 32.6609C13.3337 32.5417 13.372 32.4036 13.3682 32.2634L13.2158 26.8789L21.5703 26.6248C21.6665 26.6231 21.7615 26.6027 21.8498 26.565C21.938 26.5272 22.0178 26.4727 22.0846 26.4046C22.1513 26.3365 22.2037 26.2562 22.2388 26.1683C22.2738 26.0803 22.2909 25.9864 22.2889 25.8919C22.2869 25.7975 22.2659 25.7044 22.2272 25.6179C22.1884 25.5314 22.1327 25.4533 22.0631 25.388C21.9936 25.3227 21.9116 25.2715 21.8218 25.2373C21.732 25.2031 21.6363 25.1867 21.54 25.1889L12.4385 25.4581C12.2471 25.4659 12.0665 25.547 11.9354 25.684C11.8042 25.821 11.7331 26.003 11.7372 26.1909L11.8744 30.6033L2.26983 21.7338L11.1122 12.5503L11.4628 17.3215C11.4784 17.504 11.5643 17.6737 11.7032 17.7961C11.842 17.9184 12.0233 17.9841 12.2098 17.9796L29.3762 17.7852L29.2695 22.8705C29.266 23.0158 29.3075 23.1588 29.3886 23.2805C29.4697 23.4021 29.5865 23.4968 29.7237 23.5519C29.8608 23.607 30.0117 23.62 30.1565 23.5891C30.3013 23.5583 30.4331 23.485 30.5346 23.379L41.2826 12.2063C41.3576 12.1295 41.4143 12.0374 41.4486 11.9365C41.4828 11.8356 41.4938 11.7285 41.4808 11.623V11.6231Z" fill="white"/>
</svg>
