<svg width="36" height="39" viewBox="0 0 36 39" fill="none" xmlns="http://www.w3.org/2000/svg">
<path d="M34.5183 25.9651C34.0161 25.5321 33.3527 25.3523 32.7129 25.4662L19.2734 27.8595L15.4561 23.9506C15.3294 23.8201 15.1572 23.7473 14.977 23.7473H8.20028C8.20028 23.3642 7.89736 23.0533 7.52261 23.0533H4.81193H0.0682373V24.4412H4.13426V34.1563H0.0682373V35.5442H4.81193H7.52261C7.89736 35.5442 8.20028 35.2333 8.20028 34.8502H10.0734L17.3183 38.56C17.6321 38.7203 17.9709 38.8008 18.3098 38.8001C18.6947 38.8001 19.0803 38.6967 19.4252 38.4906L34.2092 29.6596C34.8862 29.2543 35.3071 28.5035 35.3071 27.7006C35.3071 27.0296 35.0191 26.3967 34.5183 25.9651ZM6.84494 34.1563H5.4896V24.4412H6.84494V34.1563ZM33.5255 28.4612L18.7421 37.2915C18.4914 37.4414 18.1857 37.4518 17.9248 37.3185L10.5369 33.5359C10.4427 33.4873 10.3383 33.4624 10.2333 33.4624H8.20028V25.1351H14.6964L20.0358 30.602C20.2696 30.8421 20.3983 31.1606 20.3983 31.4992C20.3983 32.1994 19.8426 32.7684 19.1596 32.7684C18.8336 32.7684 18.5144 32.6331 18.2833 32.3965L14.7784 28.8081L13.8202 29.7894L17.3251 33.3777C17.8151 33.8801 18.4656 34.1563 19.1596 34.1563C20.5894 34.1563 21.7537 32.9648 21.7537 31.4992C21.7537 30.79 21.484 30.1231 20.994 29.6207L20.4458 29.0593L32.9447 26.8332C33.1968 26.7881 33.4509 26.8596 33.6454 27.0268C33.8399 27.1947 33.9517 27.4404 33.9517 27.7006C33.9517 28.0122 33.7884 28.3036 33.5255 28.4612Z" fill="white"/>
<path d="M23.285 7.3214L16.5081 14.9542L17.5114 15.8883L24.2883 8.25548L23.285 7.3214Z" fill="white"/>
<path d="M17.6877 11.6033C18.8085 11.6033 19.7207 10.6693 19.7207 9.5215C19.7207 8.37373 18.8085 7.4397 17.6877 7.4397C16.5668 7.4397 15.6547 8.37373 15.6547 9.5215C15.6547 10.6693 16.5668 11.6033 17.6877 11.6033ZM17.6877 8.82756C18.0617 8.82756 18.3653 9.13914 18.3653 9.5215C18.3653 9.90386 18.0617 10.2154 17.6877 10.2154C17.3136 10.2154 17.01 9.90386 17.01 9.5215C17.01 9.13914 17.3136 8.82756 17.6877 8.82756Z" fill="white"/>
<path d="M21.0759 13.6851C21.0759 14.8328 21.9881 15.7669 23.1089 15.7669C24.2298 15.7669 25.1419 14.8328 25.1419 13.6851C25.1419 12.5373 24.2298 11.6033 23.1089 11.6033C21.9881 11.6033 21.0759 12.5373 21.0759 13.6851ZM23.7866 13.6851C23.7866 14.0674 23.483 14.379 23.1089 14.379C22.7349 14.379 22.4313 14.0674 22.4313 13.6851C22.4313 13.3027 22.7349 12.9911 23.1089 12.9911C23.483 12.9911 23.7866 13.3027 23.7866 13.6851Z" fill="white"/>
<path d="M19.9065 26.3064C20.0353 26.4445 20.2128 26.5229 20.3985 26.5229C20.5842 26.5229 20.7618 26.4445 20.8905 26.3064L31.637 14.7122C34.715 11.391 34.715 5.98735 31.637 2.66687C30.1346 1.04584 28.1348 0.153442 26.0056 0.153442C23.8872 0.153442 21.8975 1.03613 20.3985 2.6405C18.8995 1.03613 16.9099 0.153442 14.7915 0.153442C12.6622 0.153442 10.6624 1.04584 9.16004 2.66687C6.08207 5.98804 6.08207 11.3917 9.16004 14.7122L19.9065 26.3064ZM10.1433 3.62242C11.3869 2.28035 13.0377 1.54131 14.7915 1.54131C16.546 1.54131 18.1961 2.28035 19.4396 3.62242L19.9065 4.12691C20.1634 4.4024 20.633 4.4024 20.8898 4.12691L21.3567 3.62242C22.6009 2.28035 24.2518 1.54131 26.0056 1.54131C27.7594 1.54131 29.4095 2.28035 30.653 3.62242C33.2431 6.4162 33.2431 10.9629 30.653 13.7566L20.3985 24.8207L10.1433 13.7566C7.55329 10.9629 7.55329 6.4162 10.1433 3.62242Z" fill="white"/>
<path d="M18.3652 16.8077H17.0099V18.1956H18.3652V16.8077Z" fill="white"/>
<path d="M21.0758 16.8077H19.7205V18.1956H21.0758V16.8077Z" fill="white"/>
<path d="M23.7865 16.8077H22.4312V18.1956H23.7865V16.8077Z" fill="white"/>
</svg>
