<svg width="27" height="27" viewBox="0 0 27 27" fill="none" xmlns="http://www.w3.org/2000/svg">
<path d="M21.9681 20.6282L18.6608 18.0605C17.9831 17.5255 17.0071 17.6325 16.4378 18.2744C15.8414 18.9431 15.4619 19.3978 15.3264 19.5048C14.3233 20.4945 12.236 19.0501 10.013 16.8568C7.79009 14.6635 6.35331 12.6307 7.35634 11.6411C7.46478 11.5341 7.92563 11.1328 8.60335 10.5444C9.25397 9.98271 9.36241 9.0198 8.82023 8.35111L6.21777 5.08791C5.75691 4.52621 4.97075 4.33898 4.32014 4.60646C3.42554 4.98092 1.82611 6.29155 1.39237 6.71951C-0.993218 9.10004 1.98877 14.503 7.19369 19.6653C12.3986 24.8276 17.9017 27.7698 20.2873 25.3893C20.7211 24.9613 22.0494 23.3832 22.4289 22.5005C22.7271 21.8319 22.5374 21.0829 21.9681 20.6282Z" fill="white"/>
<path d="M13.8354 9.15361C13.1306 8.99313 12.4528 9.52808 12.507 10.2503C12.5342 10.705 12.8866 11.0794 13.3203 11.2132C13.8896 11.3469 14.4318 11.6411 14.8655 12.0691C15.2993 12.497 15.5975 13.032 15.733 13.5937C15.8414 14.0484 16.221 14.3694 16.7089 14.3961C17.4409 14.4496 17.9831 13.7809 17.8204 13.0855C17.6306 12.1761 17.1427 11.2934 16.4107 10.5712C15.6788 9.84905 14.7842 9.36759 13.8354 9.15361Z" fill="white"/>
<path d="M20.9922 14.717C21.6428 14.7705 22.185 14.2088 22.1307 13.5668C21.941 11.427 21.0193 9.31398 19.3656 7.68238C17.712 6.05078 15.5704 5.14137 13.4017 4.95413C12.751 4.90064 12.1818 5.43559 12.236 6.07753C12.2631 6.58573 12.6697 7.01369 13.2119 7.06719C14.9198 7.20092 16.5734 7.92311 17.8475 9.20699C19.1488 10.4909 19.8536 12.1225 20.0162 13.7808C20.0162 14.289 20.45 14.6902 20.9922 14.717Z" fill="white"/>
<path d="M22.2933 4.76697C19.7179 2.2527 16.3835 0.915325 12.9949 0.808335C12.3714 0.781587 11.8563 1.31654 11.9105 1.93173C11.9376 2.46668 12.3985 2.89464 12.9407 2.92139C15.7871 3.02838 18.6065 4.15177 20.7481 6.29157C22.9168 8.43138 24.0554 11.2131 24.1367 13.9949C24.1638 14.5298 24.5704 14.9845 25.1397 15.0113C25.7632 15.0648 26.3054 14.5566 26.2783 13.9414C26.197 10.5979 24.8415 7.30798 22.2933 4.76697Z" fill="white"/>
</svg>
