<svg width="38" height="44" viewBox="0 0 38 44" fill="none" xmlns="http://www.w3.org/2000/svg">
<path d="M18.9331 7.45688C28.1516 7.45688 35.651 15.1456 35.651 24.5956C35.651 34.0461 28.1511 41.7343 18.9331 41.7343C9.71466 41.7343 2.21522 34.0456 2.21522 24.5956C2.21522 15.1456 9.71466 7.45688 18.9331 7.45688ZM18.9331 5.84778C8.8332 5.84778 0.64563 14.2414 0.64563 24.5956C0.64563 34.9498 8.8332 43.3434 18.9331 43.3434C29.0331 43.3434 37.2206 34.9498 37.2206 24.5956C37.2206 14.242 29.0331 5.84778 18.9331 5.84778Z" fill="white"/>
<path d="M18.9332 13.3599C24.9764 13.3599 29.8931 18.4004 29.8931 24.5958C29.8931 30.7911 24.9764 35.8316 18.9332 35.8316C12.89 35.8316 7.97323 30.7911 7.97323 24.5958C7.97323 18.4004 12.89 13.3599 18.9332 13.3599ZM18.9332 11.7401C12.0075 11.7401 6.39319 17.4957 6.39319 24.5958C6.39319 31.6958 12.0075 37.4514 18.9332 37.4514C25.8589 37.4514 31.4732 31.6958 31.4732 24.5958C31.4732 17.4962 25.8589 11.7401 18.9332 11.7401Z" fill="white"/>
<path d="M23.2145 2.11118V2.93073H14.6517V2.11118H23.2145ZM23.3096 0.406738H14.5566C13.6945 0.406738 12.9891 1.12987 12.9891 2.01369V3.02822C12.9891 3.91204 13.6945 4.63517 14.5566 4.63517H23.309C24.1712 4.63517 24.8765 3.91204 24.8765 3.02822V2.01369C24.8771 1.12987 24.1717 0.406738 23.3096 0.406738Z" fill="white"/>
<path d="M18.9331 23.5243C19.5094 23.5243 19.9781 24.0048 19.9781 24.5956C19.9781 25.1864 19.5094 25.6669 18.9331 25.6669C18.3567 25.6669 17.8881 25.1864 17.8881 24.5956C17.8881 24.0048 18.3567 23.5243 18.9331 23.5243ZM18.9331 21.9174C17.4899 21.9174 16.3206 23.1167 16.3206 24.5956C16.3206 26.0751 17.4899 27.2739 18.9331 27.2739C20.3757 27.2739 21.5455 26.0751 21.5455 24.5956C21.5455 23.1167 20.3757 21.9174 18.9331 21.9174Z" fill="white"/>
<path d="M18.9331 23.3337C18.407 23.3337 17.9764 22.8923 17.9764 22.3529V15.9079C17.9764 15.3685 18.407 14.9271 18.9331 14.9271C19.4593 14.9271 19.8898 15.3685 19.8898 15.9079V22.3523C19.8898 22.8923 19.4593 23.3337 18.9331 23.3337Z" fill="white"/>
<path d="M19.9055 24.5936C19.9055 24.0542 20.3361 23.6128 20.8622 23.6128H24.1738C24.7 23.6128 25.1305 24.0542 25.1305 24.5936C25.1305 25.133 24.7 25.5743 24.1738 25.5743H20.8622C20.3361 25.5743 19.9055 25.133 19.9055 24.5936Z" fill="white"/>
</svg>
